<?xml version="1.0" encoding="UTF-8"?><svg id="Layer_2" xmlns="http://www.w3.org/2000/svg" viewBox="0 0 298.71 69.05"><g id="Layer_1-2"><path d="M92.8,25.55c3.19-2.56,6.38-5.13,10.6-8.52l6.9,11.51c2.67-2.28,6.17-4.85,9.14-7.93,2.85-2.95,5.09-2.6,7.25,.38,1.71,2.36,3.12,4.95,4.97,7.92,3.83-3.49,7.82-7.13,12.18-11.11,2.58,2.28,5.04,4.44,7.63,6.73l4.82-3.48c-7.2,10.3-2.64,21.83-3.66,32.68-.36,3.84-.37,8.5,6.45,6.83-3.31,2.61-6.62,5.22-9.88,7.8-4.55-2.93-6.35-6.67-6.26-11.6,.14-7.5-.19-15.02,.12-22.51,.17-3.97-1-6.77-4.48-8.7-5.61,3.14-8.92,7.39-7.9,14.41,.54,3.76-.14,7.68,.17,11.49,.28,3.47,1.17,6.89,1.99,11.49-1.36,1.1-3.9,3.14-6.8,5.47-2.74-2.13-5.44-4.23-8.09-6.29,5.09-8.56,4.23-32.46-1.13-36.36-5.36,2.99-9.07,6.76-8.03,13.74,.56,3.75-.14,7.68,.17,11.49,.29,3.62,1.16,7.19,1.99,12.01l-6.73,5.43-6.96-5.38c.81-5.09,1.77-8.99,1.98-12.94,.31-5.82,.09-11.67,.07-17.51-.02-4.1-.26-8.03-6.51-7.06Z"/><path d="M231,67.29c-7.21-2.6-13.62-4.9-19.39-6.99,.49-3.44,1.47-7.6,1.59-11.77,.28-9.99,.17-20,.18-30,0-5.76,.51-11.67-3.68-16.9,2.28,1.42,4.56,2.84,6.77,4.21,3.83-1.93,7.71-3.89,11.59-5.85l.84,.92c-10.19,7.58-3.82,18.27-6.27,27.31l1.23,.89c3.65-2.96,7.48-5.73,10.89-8.95,2.61-2.46,4.81-2.37,6.45,.45,1.62,2.77,3.45,5.9,3.61,8.96,.48,9.14,.32,18.33,.06,27.49-.04,1.49-1.5,3.45-2.86,4.3-3.78,2.36-7.85,4.26-11.01,5.92Zm1.57-42.05c-9.22,5.23-9.51,5.71-9.51,14.6,0,4.17-.09,8.33,.06,12.49,.04,1.18,.5,2.99,1.32,3.4,3.29,1.64,6.8,2.85,10.8,4.45,0-10.28,.15-19.59-.12-28.9-.06-2.01-1.64-3.98-2.56-6.04Z"/><path d="M19.94,67.99c-3.02-1.57-5.87-3.36-8.94-4.55-3.06-1.19-6.35-1.77-9.77-2.67,4.81-9.09,2.15-19.02,2.5-28.66,.17-4.7,.29-8.5,5.89-9.48,.9-.16,1.69-.98,3.07-1.83C7.03,15.36-3.8,13.15,1.35,1.13L31.88,22.27l3.56-2.63c0,11.93-.1,24.15,.07,36.37,.04,3.13-.93,4.75-3.86,5.96-3.96,1.64-7.66,3.9-11.71,6.02Zm6.07-7.74c0-8.19-.58-15.56,.17-22.79,.66-6.39-2.08-9.84-7.09-12.67-3.88-2.19-5.52-1.55-5.58,2.91-.12,8.15-.13,16.31,.06,24.46,.03,1.37,.95,3.37,2.05,3.95,3.03,1.6,6.38,2.6,10.39,4.14Z"/><path d="M63.13,60.41c7.07-3.42,10.68-8.37,9.36-16.33-.51-3.08,.15-6.34-.15-9.48-.31-3.33-1.13-6.62-1.94-11.16,1.51-1.27,4.09-3.45,6.83-5.76l6.88,5.39c-.82,5.12-1.83,9.16-2.04,13.24-.31,6.15-.19,12.33,0,18.5,.1,3.31,.82,6.5,6.1,5.87-3.07,2.49-6.15,4.98-10.34,8.38-2.33-3.99-4.45-7.63-6.89-11.8-4.06,3.3-8.63,7.01-13.38,10.88-4.94-3.08-7.55-7.43-7.46-13.49,.13-8,.02-16,.03-24,0-3.23-.63-5.77-5.35-5.21l9.73-7.68,8.21,6.18c-4.56,8.85-4.28,31.98,.41,36.49Z"/><path d="M166.71,57.39c3.58-7.38,4.84-7.76,10.44-3.43,3.55,2.74,7.05,5.54,10.75,8.46,4.55-2.76,3.65-7.19,3.04-11.05-.7-4.44-3.6-7.25-8.28-8.16-2.64-.51-5.16-1.69-7.73-2.57,2.43-.99,4.83-2.07,7.3-2.94,5.26-1.86,7.69-7.26,5.7-14.1-2.41,1.58-4.69,3.04-6.94,4.56-7.73,5.22-5.54,5.7-12.37-2.17,4.15-2.9,8.17-5.93,12.44-8.54,.95-.58,2.88,.05,4.19,.56,3.09,1.19,6.1,2.62,9.12,4,6.35,2.9,7.42,6.44,3.47,12.35-1.36,2.03-3.25,3.71-5.1,5.78,.57,.42,1.15,.92,1.8,1.31,10.3,6.05,10.43,16.72,.27,22.97-9.58,5.89-11.97,5.76-20.87-1.25-2.45-1.93-4.87-3.89-7.22-5.77Z"/><path d="M256.43,23.06q7.18-6.24,13.42,.38c-.8,4.57-1.82,8.29-2.02,12.05-.32,5.99-.12,12-.07,18,.06,6.49,.44,6.85,7.22,6.59-3.95,3.08-7.27,5.68-10.56,8.24-4.53-2.31-6-6.02-6.07-10.44-.11-6.83,.09-13.68-.2-20.5-.19-4.44-1.03-8.86-1.71-14.33Z"/><path d="M298.71,60.86c-2.53,2.67-4.7,4.95-7.14,7.53-2.43-2.55-4.68-4.91-7.18-7.52,2.49-2.62,4.75-5,7.18-7.57,2.41,2.55,4.57,4.83,7.14,7.55Z"/><path d="M265.98,10.86c-.71-9.56,.11-10.7,6.43-10.02l-6.43,10.02Z"/></g></svg>